<svg width="101" height="19" viewBox="0 0 101 19" fill="none" xmlns="http://www.w3.org/2000/svg">
<path d="M8.552 0.912C10.104 0.912 11.456 1.216 12.608 1.824C13.76 2.432 14.656 3.328 15.296 4.512C15.936 5.696 16.256 7.128 16.256 8.808V18H12.368V13.968H4.688V18H0.848V8.808C0.848 7.128 1.168 5.696 1.808 4.512C2.448 3.328 3.344 2.432 4.496 1.824C5.648 1.216 7 0.912 8.552 0.912ZM12.368 10.848V8.448C12.368 7.056 12.024 6.008 11.336 5.304C10.648 4.584 9.712 4.224 8.528 4.224C7.328 4.224 6.384 4.584 5.696 5.304C5.024 6.008 4.688 7.056 4.688 8.448V10.848H12.368ZM47.4776 1.2V11.112C47.4776 13.448 46.8456 15.232 45.5816 16.464C44.3176 17.68 42.5256 18.288 40.2056 18.288C39.0536 18.288 38.0216 18.12 37.1096 17.784C36.2136 17.448 35.4776 16.976 34.9016 16.368C34.3096 16.976 33.5656 17.448 32.6696 17.784C31.7736 18.12 30.7576 18.288 29.6216 18.288C27.3016 18.288 25.5096 17.68 24.2456 16.464C22.9816 15.232 22.3496 13.448 22.3496 11.112V1.2H26.2376V10.992C26.2376 12.352 26.5176 13.36 27.0776 14.016C27.6376 14.656 28.4696 14.976 29.5736 14.976C31.8296 14.976 32.9576 13.648 32.9576 10.992V1.2H36.8456V10.992C36.8456 13.648 37.9816 14.976 40.2536 14.976C42.4616 14.976 43.5656 13.648 43.5656 10.992V1.2H47.4776ZM59.4817 4.32V14.88H62.3857V18H52.6657V14.88H55.5937V4.32H52.6657V1.2H62.3857V4.32H59.4817ZM79.9632 5.904C78.5232 5.072 76.9792 4.536 75.3312 4.296V18H71.4432V4.296C69.7952 4.536 68.2432 5.072 66.7872 5.904L65.4672 3C66.6192 2.312 67.8672 1.792 69.2112 1.44C70.5552 1.088 71.9392 0.912 73.3632 0.912C74.8032 0.912 76.1952 1.088 77.5392 1.44C78.8992 1.792 80.1472 2.312 81.2832 3L79.9632 5.904ZM92.7536 0.912C94.3056 0.912 95.6576 1.216 96.8096 1.824C97.9616 2.432 98.8576 3.328 99.4976 4.512C100.138 5.696 100.458 7.128 100.458 8.808V18H96.5696V13.968H88.8896V18H85.0496V8.808C85.0496 7.128 85.3696 5.696 86.0096 4.512C86.6496 3.328 87.5456 2.432 88.6976 1.824C89.8496 1.216 91.2016 0.912 92.7536 0.912ZM96.5696 10.848V8.448C96.5696 7.056 96.2256 6.008 95.5376 5.304C94.8496 4.584 93.9136 4.224 92.7296 4.224C91.5296 4.224 90.5856 4.584 89.8976 5.304C89.2256 6.008 88.8896 7.056 88.8896 8.448V10.848H96.5696Z" fill="url(#paint0_linear_16_204)"/>
<defs>
<linearGradient id="paint0_linear_16_204" x1="51" y1="-4" x2="51" y2="23" gradientUnits="userSpaceOnUse">
<stop stop-color="#3AC0FF"/>
<stop offset="1" stop-color="#0C4A6E"/>
</linearGradient>
</defs>
</svg>
