<svg width="138" height="29" viewBox="0 0 138 29" fill="none" xmlns="http://www.w3.org/2000/svg">
<path d="M45.552 5.912C47.104 5.912 48.456 6.216 49.608 6.824C50.76 7.432 51.656 8.328 52.296 9.512C52.936 10.696 53.256 12.128 53.256 13.808V23H49.368V18.968H41.688V23H37.848V13.808C37.848 12.128 38.168 10.696 38.808 9.512C39.448 8.328 40.344 7.432 41.496 6.824C42.648 6.216 44 5.912 45.552 5.912ZM49.368 15.848V13.448C49.368 12.056 49.024 11.008 48.336 10.304C47.648 9.584 46.712 9.224 45.528 9.224C44.328 9.224 43.384 9.584 42.696 10.304C42.024 11.008 41.688 12.056 41.688 13.448V15.848H49.368ZM84.4776 6.2V16.112C84.4776 18.448 83.8456 20.232 82.5816 21.464C81.3176 22.68 79.5256 23.288 77.2056 23.288C76.0536 23.288 75.0216 23.12 74.1096 22.784C73.2136 22.448 72.4776 21.976 71.9016 21.368C71.3096 21.976 70.5656 22.448 69.6696 22.784C68.7736 23.12 67.7576 23.288 66.6216 23.288C64.3016 23.288 62.5096 22.68 61.2456 21.464C59.9816 20.232 59.3496 18.448 59.3496 16.112V6.2H63.2376V15.992C63.2376 17.352 63.5176 18.36 64.0776 19.016C64.6376 19.656 65.4696 19.976 66.5736 19.976C68.8296 19.976 69.9576 18.648 69.9576 15.992V6.2H73.8456V15.992C73.8456 18.648 74.9816 19.976 77.2536 19.976C79.4616 19.976 80.5656 18.648 80.5656 15.992V6.2H84.4776ZM96.4817 9.32V19.88H99.3857V23H89.6657V19.88H92.5937V9.32H89.6657V6.2H99.3857V9.32H96.4817ZM116.963 10.904C115.523 10.072 113.979 9.536 112.331 9.296V23H108.443V9.296C106.795 9.536 105.243 10.072 103.787 10.904L102.467 8C103.619 7.312 104.867 6.792 106.211 6.44C107.555 6.088 108.939 5.912 110.363 5.912C111.803 5.912 113.195 6.088 114.539 6.44C115.899 6.792 117.147 7.312 118.283 8L116.963 10.904ZM129.754 5.912C131.306 5.912 132.658 6.216 133.81 6.824C134.962 7.432 135.858 8.328 136.498 9.512C137.138 10.696 137.458 12.128 137.458 13.808V23H133.57V18.968H125.89V23H122.05V13.808C122.05 12.128 122.37 10.696 123.01 9.512C123.65 8.328 124.546 7.432 125.698 6.824C126.85 6.216 128.202 5.912 129.754 5.912ZM133.57 15.848V13.448C133.57 12.056 133.226 11.008 132.538 10.304C131.85 9.584 130.914 9.224 129.73 9.224C128.53 9.224 127.586 9.584 126.898 10.304C126.226 11.008 125.89 12.056 125.89 13.448V15.848H133.57Z" fill="url(#paint0_linear_0_1)"/>
<g clip-path="url(#clip0_0_1)">
<path d="M11 27.8243C13.5527 27.8243 16.0009 26.8127 17.8059 25.0121C19.6109 23.2115 20.625 20.7694 20.625 18.2229C20.625 15.4797 19.25 12.8736 16.5 10.679C13.75 8.48444 11.6875 5.19254 11 1.76349C10.3125 5.19254 8.25 8.48444 5.5 10.679C2.75 12.8736 1.375 15.4797 1.375 18.2229C1.375 20.7694 2.38906 23.2115 4.1941 25.0121C5.99913 26.8127 8.44729 27.8243 11 27.8243Z" stroke="url(#paint1_linear_0_1)" stroke-width="2" stroke-linecap="round" stroke-linejoin="round"/>
<g clip-path="url(#clip1_0_1)">
<path d="M4.98438 17.3434C6.63874 15.8673 8.78044 15.0513 11 15.0513C13.2196 15.0513 15.3613 15.8673 17.0156 17.3434M6.78906 19.7671C7.91356 18.6676 9.42539 18.0517 11 18.0517C12.5746 18.0517 14.0864 18.6676 15.2109 19.7671M8.89453 21.9094C9.45678 21.3597 10.2127 21.0517 11 21.0517C11.7873 21.0517 12.5432 21.3597 13.1055 21.9094" stroke="url(#paint2_linear_0_1)" stroke-width="2" stroke-linecap="round" stroke-linejoin="round"/>
</g>
</g>
<defs>
<linearGradient id="paint0_linear_0_1" x1="88" y1="1" x2="88" y2="28" gradientUnits="userSpaceOnUse">
<stop stop-color="#4DC1F2"/>
<stop offset="1" stop-color="#139BD8"/>
</linearGradient>
<linearGradient id="paint1_linear_0_1" x1="11" y1="1.76349" x2="11" y2="27.8243" gradientUnits="userSpaceOnUse">
<stop stop-color="#4DC1F2"/>
<stop offset="1" stop-color="#139BD8"/>
</linearGradient>
<linearGradient id="paint2_linear_0_1" x1="11" y1="15.0513" x2="11" y2="21.9094" gradientUnits="userSpaceOnUse">
<stop stop-color="#4DC1F2"/>
<stop offset="1" stop-color="#139BD8"/>
</linearGradient>
<clipPath id="clip0_0_1">
<rect width="22" height="29" fill="white"/>
</clipPath>
<clipPath id="clip1_0_1">
<rect width="14.4375" height="14.402" fill="white" transform="translate(3.78125 12.0507)"/>
</clipPath>
</defs>
</svg>
